# xmcd
#
# Track frame offsets:
#	150
#	3655
#	7275
#	8478
#	9768
#	11262
#	12239
#	14159
#	19154
#	22424
#	26199
#	32926
#	36322
#	42890
#	48534
#	53590
#	59135
#	64680
#	67505
#	71909
#	76313
#	84013
#	91713
#	109009
#	113007
#	117005
#	121843
#	126681
#	134720
#	150690
#	163102
#	170928
#	179303
#	184161
#	189019
#	193280
#	198449
#	206109
#	210910
#	215711
#	218658
#
# Disc length: 2952 seconds
#
# Revision: 0
# Processed by: cddbd v1.5.2PL0 Copyright (c) Steve Scherf et al.
# Submitted via: dBpowerAMP V4.0
#
DISCID=420b8629
DTITLE=Various Artits - Les secrets du BLUES
DYEAR=2010
DGENRE=Blues
TTITLE0=Blues Binaire
TTITLE1=Blues Ternaire
TTITLE2=Turnaround 1
TTITLE3=Turnaround 2
TTITLE4=Turnaround 3
TTITLE5=Turnaround 4
TTITLE6=Exercice Picking Blues
TTITLE7=12 Bars Picking Blues
TTITLE8=Big Bill's Picking Blues
TTITLE9=Tappin' Blues
TTITLE10=Poison Blues
TTITLE11=From Tupelo's Boogie
TTITLE12=I'm So Happy
TTITLE13=B.L.J. Blues
TTITLE14=S.L.H. Blues
TTITLE15=T-Bone Solo
TTITLE16=T-Bone Rhythm
TTITLE17=Gate's Boogie
TTITLE18=Riley's Solo
TTITLE19=Riley's Rhythm
TTITLE20=Fastfingers Solo
TTITLE21=Fastfingers Rhythm
TTITLE22=Notes Pivots (Explications and Exemples)
TTITLE23=Lou's Solo
TTITLE24=Lou's Rhythm
TTITLE25=Crazy Dude Solo
TTITLE26=Crazy Dude Rhythm
TTITLE27=12 Strings Down
TTITLE28=Explication Open G
TTITLE29=Explication Open D
TTITLE30=Sweet Koko (Short Version)
TTITLE31=Sweet Koko (Long Version)
TTITLE32=Jay Spring Solo
TTITLE33=Jay Spring Rhythm
TTITLE34=Lyon Mississippi
TTITLE35=Ponccho Blues
TTITLE36=N.Y.C. Blues
TTITLE37=My Blues Is Rich Solo
TTITLE38=My Blues Is Rich Rhythm
TTITLE39=Mickiniley's Solo
TTITLE40=Mickiniley's Rhythm
EXTD=Magazin Acoustic de Novembre-Decembre 2010
EXTT0=
EXTT1=
EXTT2=
EXTT3=
EXTT4=
EXTT5=
EXTT6=
EXTT7=
EXTT8=
EXTT9=
EXTT10=
EXTT11=
EXTT12=
EXTT13=
EXTT14=
EXTT15=
EXTT16=
EXTT17=
EXTT18=
EXTT19=
EXTT20=
EXTT21=
EXTT22=
EXTT23=
EXTT24=
EXTT25=
EXTT26=
EXTT27=
EXTT28=
EXTT29=
EXTT30=
EXTT31=
EXTT32=
EXTT33=
EXTT34=
EXTT35=
EXTT36=
EXTT37=
EXTT38=
EXTT39=
EXTT40=
PLAYORDER=
